<?xml version="1.0" encoding="UTF-8" standalone="no"?>
<!-- Generator: Adobe Illustrator 16.0.0, SVG Export Plug-In . SVG Version: 6.00 Build 0)  -->

<svg
   version="1.1"
   id="Ebene_1"
   x="0px"
   y="0px"
   width="786.22998"
   height="321.34192"
   viewBox="0 0 786.22997 321.34191"
   enable-background="new 0 0 850.39 425.2"
   xml:space="preserve"
   sodipodi:docname="logo.svg"
   inkscape:version="1.1.1 (3bf5ae0d25, 2021-09-20)"
   xmlns:inkscape="http://www.inkscape.org/namespaces/inkscape"
   xmlns:sodipodi="http://sodipodi.sourceforge.net/DTD/sodipodi-0.dtd"
   xmlns="http://www.w3.org/2000/svg"
   xmlns:svg="http://www.w3.org/2000/svg"><defs
   id="defs273" /><sodipodi:namedview
   id="namedview271"
   pagecolor="#ffffff"
   bordercolor="#666666"
   borderopacity="1.0"
   inkscape:pageshadow="2"
   inkscape:pageopacity="0.0"
   inkscape:pagecheckerboard="true"
   showgrid="false"
   inkscape:zoom="1.5780994"
   inkscape:cx="392.56082"
   inkscape:cy="160.00259"
   inkscape:window-width="1920"
   inkscape:window-height="1001"
   inkscape:window-x="-9"
   inkscape:window-y="1067"
   inkscape:window-maximized="1"
   inkscape:current-layer="Ebene_1" />
<path
   fill="#a2ce90"
   d="m 193.817,162.4589 c 2.657,0 4.83,-2.173 4.83,-4.83 v -16.228 c 0,-2.657 -2.173,-4.83 -4.83,-4.83 h -3.202 c -2.657,0 -4.83,2.173 -4.83,4.83 v 16.228 c 0,2.657 2.173,4.83 4.83,4.83 z"
   id="path2" />
<path
   fill="#0b8036"
   d="m 156.736,146.7649 c 2.657,0 4.83,-2.173 4.83,-4.83 V 93.255904 c 0,-2.656 -2.173,-4.829 -4.83,-4.829 h -3.201 c -2.657,0 -4.83,2.173 -4.83,4.829 V 141.9349 c 0,2.657 2.173,4.83 4.83,4.83 z"
   id="path4" />
<path
   fill="#a2ce90"
   d="m 175.275,113.6059 c 2.657,0 4.83,-2.173 4.83,-4.83 V 94.754904 c 0,-2.657 -2.173,-4.83 -4.83,-4.83 h -3.199 c -2.657,0 -4.83,2.173 -4.83,4.83 V 108.7759 c 0,2.657 2.173,4.83 4.83,4.83 z"
   id="path6" />
<path
   fill="#69b42d"
   d="m 193.817,130.5049 c 2.657,0 4.83,-2.173 4.83,-4.829 v -21.781 c 0,-2.656 -2.173,-4.829996 -4.83,-4.829996 h -3.202 c -2.657,0 -4.83,2.173996 -4.83,4.829996 v 21.781 c 0,2.656 2.173,4.829 4.83,4.829 z"
   id="path8" />
<path
   fill="#0b8036"
   d="m 212.356,146.7649 c 2.657,0 4.83,-2.173 4.83,-4.83 v -26.641 c 0,-2.656 -2.173,-4.83 -4.83,-4.83 h -3.199 c -2.657,0 -4.83,2.174 -4.83,4.83 v 26.641 c 0,2.657 2.173,4.83 4.83,4.83 z"
   id="path10" />
<path
   fill="#a2ce90"
   d="m 156.736,82.360904 c 2.657,0 4.83,-2.173 4.83,-4.83 v -25.461 c 0,-2.657 -1.513,-6.391 -3.361,-8.299 l -5.561,-4.973 c -2.167,-1.538 -3.939,-0.623 -3.939,2.034 v 36.698 c 0,2.657 2.173,4.83 4.83,4.83 h 3.201 z"
   id="path12" />
<path
   fill="#0b8036"
   d="m 175.275,83.858904 c 2.657,0 4.83,-2.174 4.83,-4.83 v -0.675 c 0,-2.656 -1.627,-6.27 -3.617,-8.03 l -6.686,-8.056 c -1.406,-2.254 -2.556,-1.924 -2.556,0.732 v 16.028 c 0,2.656 2.173,4.83 4.83,4.83 h 3.199 z"
   id="path14" />
<path
   fill="#a2ce90"
   d="m 193.817,92.999904 c 2.657,0 4.83,-2.007 4.83,-4.458 0,-2.452 -1.908,-5.498 -4.241,-6.77 l -4.432,-2.427 c -2.304,-1.322 -4.189,-0.231 -4.189,2.425 v 6.399 c 0,2.657 2.173,4.83 4.83,4.83 h 3.202 z"
   id="path16" />
<path
   fill="#69b42d"
   d="m 212.356,104.3989 c 2.657,0 4.83,-2.173 4.83,-4.829996 v -2.504 c 0,-2.655 -1.946,-5.589 -4.323,-6.514 -2.377,-0.928 -8.536,-1.486 -8.536,1.17 v 7.848 c 0,2.656996 2.173,4.829996 4.83,4.829996 z"
   id="path18" />
<path
   fill="#a2ce90"
   d="m 138.195,118.7909 c 2.657,0 4.83,-2.174 4.83,-4.83 V 74.609904 c 0,-2.655 -2.173,-4.83 -4.83,-4.83 h -3.199 c -2.657,0 -4.83,2.175 -4.83,4.83 V 113.9609 c 0,2.656 2.173,4.83 4.83,4.83 z"
   id="path20" />
<path
   fill="#0b8036"
   d="m 138.195,63.713904 c 2.657,0 4.83,-1.781 4.83,-3.958 0,-2.177 -1.842,-5.114 -4.091,-6.525 l -4.524,-2.693 c -2.334,-1.267 -4.244,-0.131 -4.244,2.526 v 5.82 c 0,2.656 2.173,4.83 4.83,4.83 z"
   id="path22" />
<path
   fill="#0b8036"
   d="m 116.454,168.5259 c -2.657,0 -4.83,2.173 -4.83,4.83 v 11.404 c 0,2.657 2.158,5.093 4.795,5.415 0,0 0.508,0.062 3.215,-0.651 2.698,-0.71 3.368,-0.253 4.204,2.356 0.184,0.565 0.184,0.565 0.184,0.565 0.255,0.605 0.464,-1.072 0.464,-3.729 v -15.36 c 0,-2.657 -2.173,-4.83 -4.83,-4.83 z"
   id="path24" />
<path
   fill="#69b42d"
   d="m 215.217,284.2979 c 0.355,2.396 0.842,4.42 1.083,4.498 0.241,0.077 0.885,-1.888 0.885,-4.545 v -9.505 c 0,-2.656 -0.566,-4.01 -1.258,-3.009 0,0 0,0 -0.619,0.917 -2.042,3.021 -2.048,6.43 -0.744,9.906 0.653,1.738 0.653,1.738 0.653,1.738 z"
   id="path26" />
<path
   fill="#0b8036"
   d="m 68.864,144.9979 c 0,-2.656 -0.835,-3.804 -1.857,-2.55 0,0 0,0 -1.154,0.831 -3.135,2.256 -4.81,5.467 -6.294,8.856 -1.131,2.586 -1.553,3.514 -1.553,3.514 -1.101,2.418 -2.001,4.447 -2.001,4.508 0,0.062 1.93,0.894 4.29,1.846 2.359,0.952 8.569,1.317 8.569,-1.34 z"
   id="path28" />
<g
   id="g38"
   transform="translate(-32.099,-52.770096)">
	<g
   id="g32">
		<path
   fill="#a2ce90"
   d="m 44.958,80.262 c 0,-2.655 -1.444,-5.467 -3.21,-6.243 0,0 0,0 -1.588,-0.746 -3.763,-1.767 -4.754,-2.821 -4.754,-2.821 -1.819,-1.938 -3.307,-1.347 -3.307,1.309 v 0.821 c 0,2.655 0.918,6.8 2.042,9.207 l 7.965,13.845 c 1.569,2.143 2.853,1.723 2.853,-0.934 V 80.262 Z"
   id="path30" />
	</g>
	<g
   id="g36">
		<path
   fill="#0b8036"
   d="m 42.546,121.583 c 1.327,2.301 2.412,2.01 2.412,-0.646 v -8.64 c 0,-2.655 -1.559,-5.599 -3.464,-6.538 -1.906,-0.938 -5.915,-3.004 -5.535,-0.375 0,0 0.118,0.815 0.932,3.488 1.877,6.156 5.655,12.711 5.655,12.711 z"
   id="path34" />
	</g>
</g>
<path
   fill="#a2ce90"
   d="m 45.495,31.063904 c 2.657,0 4.83,-2.175 4.83,-4.83 v -5.526 c 0,-2.656 -1.952,-5.554 -4.34,-6.438 -2.387,-0.885 -8.521,-1.384 -8.521,1.273 v 10.69 c 0,2.655 2.173,4.83 4.83,4.83 h 3.201 z"
   id="path40" />
<g
   id="g50"
   transform="translate(-32.099,-52.770096)">
	<g
   id="g44">
		<path
   fill="#a2ce90"
   d="m 74.393,141.197 c -2.657,0 -4.83,2.016 -4.83,4.48 0,2.462 1.845,5.628 4.099,7.034 0,0 0.463,0.288 2.857,1.549 0.539,0.281 1.08,0.583 1.566,0.949 1.813,1.36 1.817,2.336 -0.242,3.335 -3.612,1.753 -5.308,3.927 -5.308,3.927 -1.634,2.093 -2.972,5.98 -2.972,8.637 v 2.721 c 0,2.656 1.857,5.96 4.126,7.34 0,0 1.628,0.992 4.495,2.759 1.39,0.856 1.39,0.856 1.39,0.856 1.567,0.839 2.85,-0.648 2.85,-3.306 v -35.452 c 0,-2.656 -2.173,-4.829 -4.83,-4.829 z"
   id="path42" />
	</g>
	<g
   id="g48">
		<path
   fill="#0b8036"
   d="m 77.594,135.131 c 2.657,0 4.83,-2.173 4.83,-4.83 V 94.729 c 0,-2.657 -2.173,-4.83 -4.83,-4.83 h -3.201 c -2.657,0 -4.83,2.173 -4.83,4.83 V 130.3 c 0,2.657 2.173,4.83 4.83,4.83 h 3.201 z"
   id="path46" />
	</g>
</g>
<path
   fill="#a2ce90"
   d="m 64.034,42.383904 c 2.657,0 4.83,-2.174 4.83,-4.83 v -10.395 c 0,-2.655 -1.927,-5.509 -4.282,-6.337 -2.355,-0.829 -8.578,-0.807 -8.578,1.849 v 14.884 c 0,2.656 2.173,4.83 4.83,4.83 h 3.2 z"
   id="path52" />
<path
   fill="#0b8036"
   d="m 64.034,67.460904 c 2.657,0 4.83,-2.174 4.83,-4.83 v -9.352 c 0,-2.655 -2.173,-4.83 -4.83,-4.83 h -3.199 c -2.657,0 -4.83,2.175 -4.83,4.83 v 9.352 c 0,2.656 2.173,4.83 4.83,4.83 z"
   id="path54" />
<g
   id="g64"
   transform="translate(-32.099,-52.770096)">
	<g
   id="g58">
		<path
   fill="#69b42d"
   d="m 96.133,171.561 c 2.657,0 4.83,-2.174 4.83,-4.83 v -35.603 c 0,-2.656 -2.173,-4.83 -4.83,-4.83 h -3.199 c -2.657,0 -4.83,2.174 -4.83,4.83 v 35.603 c 0,2.656 2.173,4.83 4.83,4.83 z"
   id="path56" />
	</g>
	<g
   id="g62">
		<path
   fill="#a2ce90"
   d="m 92.934,177.626 c -2.657,0 -4.83,2.173 -4.83,4.83 v 1.496 c 0,2.657 2.069,5.497 4.597,6.312 0,0 1.009,0.326 3.976,0.834 1.489,0.254 1.489,0.254 1.489,0.254 1.539,0.854 2.798,-0.62 2.798,-3.276 v -5.62 c 0,-2.657 -2.173,-4.83 -4.83,-4.83 z"
   id="path60" />
	</g>
</g>
<path
   fill="#69b42d"
   d="m 79.374,157.8309 c -2.657,0 -4.83,2.173 -4.83,4.83 v 0.297 c 0,2.657 1.921,5.286 4.269,5.843 2.348,0.557 8.593,-1.38 8.593,-4.036 v -2.104 c 0,-2.657 -2.173,-4.83 -4.83,-4.83 z"
   id="path66" />
<path
   fill="#a2ce90"
   d="m 79.374,112.3309 c -2.657,0 -4.83,2.173 -4.83,4.83 v 29.774 c 0,2.656 2.173,4.83 4.83,4.83 h 3.202 c 2.657,0 4.83,-2.174 4.83,-4.83 v -29.774 c 0,-2.657 -2.173,-4.83 -4.83,-4.83 z"
   id="path68" />
<g
   id="g78"
   transform="translate(-32.099,-52.770096)">
	<g
   id="g72">
		<path
   fill="#69b42d"
   d="m 114.675,116.484 c 2.657,0 4.83,-2.174 4.83,-4.83 V 86.913 c 0,-2.655 -1.923,-5.582 -4.275,-6.503 -2.352,-0.918 -8.586,-1.08 -8.586,1.575 v 29.669 c 0,2.656 2.173,4.83 4.83,4.83 z"
   id="path70" />
	</g>
	<g
   id="g76">
		<path
   fill="#0b8036"
   d="m 111.473,122.55 c -2.657,0 -4.83,2.175 -4.83,4.83 v 26.825 c 0,2.656 2.173,4.83 4.83,4.83 h 3.202 c 2.657,0 4.83,-2.174 4.83,-4.83 V 127.38 c 0,-2.655 -2.173,-4.83 -4.83,-4.83 z"
   id="path74" />
	</g>
</g>
<path
   fill="#0b8036"
   d="m 101.115,54.348904 c 2.657,0 4.83,-2.174 4.83,-4.829 v -7.411 c 0,-2.655 -1.637,-5.546 -3.638,-6.423 0,0 0,0 -1.811,-0.817 -2.456,-1.11 -2.966,-1.328 -2.966,-1.328 -2.444,-1.039 -4.444,0.282 -4.444,2.938 v 13.041 c 0,2.655 2.173,4.829 4.83,4.829 z"
   id="path80" />
<path
   fill="#a2ce90"
   d="m 101.115,112.3309 c 2.657,0 4.83,-2.173 4.83,-4.83 V 65.245904 c 0,-2.656 -2.173,-4.83 -4.83,-4.83 h -3.2 c -2.657,0 -4.83,2.174 -4.83,4.83 V 107.5009 c 0,2.657 2.173,4.83 4.83,4.83 z"
   id="path82" />
<g
   id="g92"
   transform="translate(-32.099,-52.770096)">
	<g
   id="g86">
		<path
   fill="#0b8036"
   d="m 133.214,195.042 c 2.657,0 4.83,-2.173 4.83,-4.83 v -14.216 c 0,-2.656 -2.173,-4.83 -4.83,-4.83 h -3.2 c -2.657,0 -4.83,2.174 -4.83,4.83 v 14.216 c 0,2.657 2.173,4.83 4.83,4.83 z"
   id="path84" />
	</g>
	<g
   id="g90">
		<path
   fill="#69b42d"
   d="m 130.014,201.108 c -2.657,0 -4.83,2.173 -4.83,4.83 v 10.927 c 0,2.656 0.892,4.654 1.981,4.441 0,0 0,0 0.994,-0.236 1.857,-0.443 3.674,-1.069 5.538,-1.478 0.583,-0.129 1.509,-0.026 1.819,0.351 0.264,0.317 0.058,1.307 -0.262,1.786 -3.292,4.938 -3.499,10.104 -1.484,15.562 0.517,1.399 0.517,1.399 0.517,1.399 0.196,1.848 0.864,3.071 1.484,2.72 0.62,-0.351 2.271,-2.818 2.271,-5.475 v -29.997 c 0,-2.657 -2.173,-4.83 -4.83,-4.83 z"
   id="path88" />
	</g>
</g>
<path
   fill="#69b42d"
   d="m 119.656,66.747904 c 2.657,0 4.83,-2.175 4.83,-4.83 v -11.637 c 0,-2.656 -1.924,-5.7 -4.275,-6.763 -2.351,-1.062 -8.586,-1.613 -8.586,1.043 v 17.356 c 0,2.655 2.173,4.83 4.83,4.83 h 3.201 z"
   id="path94" />
<g
   id="g104"
   transform="translate(-32.099,-52.770096)">
	<g
   id="g98">
		<path
   fill="#0b8036"
   d="m 151.755,159.035 c 2.657,0 4.83,-2.174 4.83,-4.83 v -23.792 c 0,-2.655 -2.173,-4.83 -4.83,-4.83 h -3.202 c -2.657,0 -4.83,2.175 -4.83,4.83 v 23.792 c 0,2.656 2.173,4.83 4.83,4.83 z"
   id="path96" />
	</g>
	<g
   id="g102">
		<path
   fill="#69b42d"
   d="m 148.553,165.101 c -2.657,0 -4.83,2.173 -4.83,4.83 V 210.4 c 0,2.657 2.173,4.83 4.83,4.83 h 3.202 c 2.657,0 4.83,-2.173 4.83,-4.83 v -40.469 c 0,-2.657 -2.173,-4.83 -4.83,-4.83 z"
   id="path100" />
	</g>
</g>
<g
   id="g114"
   transform="translate(-32.099,-52.770096)">
	<g
   id="g108">
		<path
   fill="#0b8036"
   d="m 170.294,212.197 c 2.657,0 4.83,-2.174 4.83,-4.83 v -24.911 c 0,-2.657 -2.173,-4.83 -4.83,-4.83 h -3.199 c -2.657,0 -4.83,2.173 -4.83,4.83 v 24.911 c 0,2.656 2.173,4.83 4.83,4.83 z"
   id="path106" />
	</g>
	<g
   id="g112">
		<path
   fill="#a2ce90"
   d="m 167.095,218.263 c -2.657,0 -4.83,2.173 -4.83,4.83 v 26.999 c 0,2.656 1.162,4.948 2.58,5.093 0,0 0,0 1.389,0.309 2.216,0.487 4.53,0.532 6.753,0.993 0.726,0.15 0.726,0.15 0.726,0.15 0.776,0.372 1.411,-1.495 1.411,-4.152 v -29.392 c 0,-2.657 -2.173,-4.83 -4.83,-4.83 z"
   id="path110" />
	</g>
</g>
<g
   id="g124"
   transform="translate(-32.099,-52.770096)">
	<g
   id="g118">
		<path
   fill="#a2ce90"
   d="m 188.835,238.015 c 2.657,0 4.83,-2.174 4.83,-4.83 v -22.754 c 0,-2.656 -2.173,-4.83 -4.83,-4.83 h -3.201 c -2.657,0 -4.83,2.174 -4.83,4.83 v 22.754 c 0,2.656 2.173,4.83 4.83,4.83 z"
   id="path116" />
	</g>
	<g
   id="g122">
		<path
   fill="#69b42d"
   d="m 185.634,244.08 c -2.657,0 -4.83,2.173 -4.83,4.83 v 9.657 c 0,2.657 0.315,5.331 0.699,5.943 0.384,0.612 2.704,2.035 4.327,1.887 0,0 0,0 1.675,-0.035 1.815,-0.04 3.632,0.016 5.442,0.119 0.224,0.013 0.224,0.013 0.224,0.013 0.272,0.02 0.495,-2.137 0.495,-4.794 v -12.79 c 0,-2.657 -2.173,-4.83 -4.83,-4.83 z"
   id="path120" />
	</g>
</g>
<g
   id="g134"
   transform="translate(-32.099,-52.770096)">
	<g
   id="g128">
		<path
   fill="#69b42d"
   d="m 207.374,219.191 c 2.657,0 4.83,-2.173 4.83,-4.83 v -37.089 c 0,-2.657 -2.173,-4.83 -4.83,-4.83 h -3.199 c -2.657,0 -4.83,2.173 -4.83,4.83 v 37.089 c 0,2.657 2.173,4.83 4.83,4.83 z"
   id="path126" />
	</g>
	<g
   id="g132">
		<path
   fill="#0b8036"
   d="m 204.175,225.257 c -2.657,0 -4.83,2.174 -4.83,4.83 v 35.979 c 0,2.657 0.738,5.56 1.64,6.451 0.902,0.891 3.994,3.415 6.115,2.371 0,0 0,0 2.035,0.296 1.038,0.15 1.038,0.15 1.038,0.15 1.118,0.09 2.032,-2.009 2.032,-4.666 v -40.581 c 0,-2.656 -2.173,-4.83 -4.83,-4.83 z"
   id="path130" />
	</g>
</g>
<g
   id="g144"
   transform="translate(-32.099,-52.770096)">
	<g
   id="g138">
		<path
   fill="#0b8036"
   d="m 225.916,254.281 c 2.657,0 4.83,-2.173 4.83,-4.83 v -23.325 c 0,-2.657 -2.173,-4.83 -4.83,-4.83 h -3.202 c -2.657,0 -4.83,2.173 -4.83,4.83 v 23.325 c 0,2.657 2.173,4.83 4.83,4.83 z"
   id="path136" />
	</g>
	<g
   id="g142">
		<path
   fill="#a2ce90"
   d="m 222.714,260.347 c -2.657,0 -4.83,2.174 -4.83,4.83 v 4.062 c 0,2.657 0.085,4.781 0.191,4.723 0,0 0,0 0.095,-0.067 0.588,-0.424 2.017,-0.04 2.884,0.353 2.276,1.029 4.469,2.245 6.672,3.433 1,0.539 1,0.539 1,0.539 1.11,0.628 2.019,-1.032 2.019,-3.688 v -9.354 c 0,-2.656 -2.173,-4.83 -4.83,-4.83 h -3.201 z"
   id="path140" />
	</g>
</g>
<g
   id="g154"
   transform="translate(-32.099,-52.770096)">
	<g
   id="g148">
		<path
   fill="#69b42d"
   d="m 244.455,243.283 c 2.657,0 4.83,-2.173 4.83,-4.83 v -28.022 c 0,-2.656 -2.173,-4.83 -4.83,-4.83 h -3.199 c -2.657,0 -4.83,2.174 -4.83,4.83 v 28.022 c 0,2.657 2.173,4.83 4.83,4.83 z"
   id="path146" />
	</g>
	<g
   id="g152">
		<path
   fill="#a2ce90"
   d="m 241.255,249.35 c -2.657,0 -4.83,2.173 -4.83,4.83 v 18.843 c 0,2.656 1.208,4.685 2.685,4.508 0,0 0,0 1.502,0.183 3.441,0.415 6.541,0.215 8.635,-3.208 0.009,-0.016 0.009,-0.016 0.009,-0.016 0.015,-0.017 0.029,-2.203 0.029,-4.86 v -15.45 c 0,-2.657 -2.173,-4.83 -4.83,-4.83 z"
   id="path150" />
	</g>
</g>
<path
   fill="#a2ce90"
   d="m 230.897,115.3639 c 2.657,0 4.83,-2.174 4.83,-4.83 v -8.443 c 0,-2.654996 -0.294,-4.871996 -0.652,-4.922996 0,0 0,0 -0.366,-0.07 -4.02,-0.77 -7.192,-1.661 -7.192,-1.661 -2.559,-0.72 -4.65,0.866 -4.65,3.522 V 110.5339 c 0,2.656 2.173,4.83 4.83,4.83 z"
   id="path156" />
<g
   id="g166"
   transform="translate(-32.099,-52.770096)">
	<g
   id="g160">
		<path
   fill="#a2ce90"
   d="m 259.58,225.257 c 2.539,0 4.197,-2.132 3.684,-4.739 0,0 -0.066,-0.337 -0.444,-2.893 -0.453,-3.077 0.1,-6.388 0.677,-9.503 0.406,-2.188 0.406,-2.188 0.406,-2.188 2.158,-0.948 3.922,-3.897 3.922,-6.555 v -20.351 c 0,-2.657 -2.173,-4.83 -4.83,-4.83 h -3.201 c -2.657,0 -4.83,2.173 -4.83,4.83 v 41.397 c 0,2.659 2.077,4.832 4.616,4.832 z"
   id="path158" />
	</g>
	<g
   id="g164">
		<path
   fill="#0b8036"
   d="m 266.377,235.521 c -0.499,-2.309 -3.081,-4.197 -5.737,-4.197 h -0.845 c -2.657,0 -4.83,2.173 -4.83,4.83 v 33.014 c 0,2.657 0.671,4.95 1.492,5.097 0.821,0.146 4.012,-1.3 5.542,-3.471 0,0 0.374,-0.53 2.324,-2.086 1.447,-1.153 1.447,-1.153 1.447,-1.153 1.131,-1.437 2.057,-4.786 2.057,-7.442 v -12.739 c 0,-2.656 -0.313,-6.305 -0.694,-8.107 0,0 0,0 -0.331,-1.641 -0.425,-2.105 -0.425,-2.105 -0.425,-2.105 z"
   id="path162" />
	</g>
</g>
<path
   fill="#a2ce90"
   d="m 249.436,82.360904 c 2.657,0 4.83,-2.173 4.83,-4.83 v -0.269 c 0,-2.656 -2.06,-5.522 -4.577,-6.37 0,0 -2.951,-0.994 -6.516,-3.234 -0.559,-0.351 -0.559,-0.351 -0.559,-0.351 -0.664,-0.308 -1.207,1.614 -1.207,4.271 v 5.953 c 0,2.657 2.173,4.83 4.83,4.83 z"
   id="path168" />
<path
   fill="#69b42d"
   d="m 249.436,127.4729 c 2.657,0 4.83,-2.174 4.83,-4.83 V 93.255904 c 0,-2.656 -2.173,-4.829 -4.83,-4.829 h -3.199 c -2.657,0 -4.83,2.173 -4.83,4.829 V 122.6429 c 0,2.656 2.173,4.83 4.83,4.83 z"
   id="path170" />
<g
   id="g174"
   transform="translate(-32.099,-52.770096)">
	<path
   fill="#0b8036"
   d="m 278.335,343.108 c -2.657,0 -4.83,2.173 -4.83,4.83 v 3.428 c 0,2.656 0.591,4.885 1.313,4.949 0,0 0,0 0.657,-0.01 4.018,-0.06 7.259,0.373 9.31,4.579 0.326,0.667 0.326,0.667 0.326,0.667 0.69,0.563 1.253,-1.148 1.253,-3.805 v -9.809 c 0,-2.657 -2.173,-4.83 -4.83,-4.83 h -3.199 z"
   id="path172" />
</g>
<g
   id="g184"
   transform="translate(-32.099,-52.770096)">
	<g
   id="g178">
		<path
   fill="#a2ce90"
   d="m 262.996,325.56 c 2.657,0 4.83,-2.173 4.83,-4.83 v -15.684 c 0,-2.656 -1.48,-3.237 -3.289,-1.293 0,0 -3.677,3.955 -6.952,7.872 -0.892,1.067 -0.892,1.067 -0.892,1.067 -0.951,1.205 -1.728,4.363 -1.728,7.021 v 1.017 c 0,2.657 2.173,4.83 4.83,4.83 z"
   id="path176" />
	</g>
	<g
   id="g182">
		<path
   fill="#69b42d"
   d="m 259.794,331.626 c -2.657,0 -4.83,2.173 -4.83,4.83 v 2.418 c 0,2.657 0.502,4.997 1.116,5.201 0,0 0,0 0.559,0.192 0.622,0.213 1.223,0.63 1.697,1.096 2.01,1.971 4.127,3.86 5.895,6.033 1.305,1.604 1.305,1.604 1.305,1.604 1.073,2.184 2,3.93 2.062,3.881 0.062,-0.049 0.228,-2.342 0.228,-4.999 v -15.426 c 0,-2.657 -2.173,-4.83 -4.83,-4.83 z"
   id="path180" />
	</g>
</g>
<path
   fill="#69b42d"
   d="m 267.977,96.032904 c 2.657,0 4.83,-2.174 4.83,-4.83 v -12.657 c 0,-2.657 -1.948,-4.752 -4.33,-4.654 -2.381,0.096 -8.532,1.811 -8.532,4.467 v 12.845 c 0,2.656 2.173,4.83 4.83,4.83 h 3.202 z"
   id="path186" />
<path
   fill="#a2ce90"
   d="m 267.977,149.7979 c 2.657,0 4.83,-2.174 4.83,-4.83 v -38.04 c 0,-2.657 -2.173,-4.83 -4.83,-4.83 h -3.202 c -2.657,0 -4.83,2.173 -4.83,4.83 v 38.04 c 0,2.656 2.173,4.83 4.83,4.83 z"
   id="path188" />
<path
   fill="#69b42d"
   d="m 267.977,202.4299 c 2.657,0 4.83,-2.174 4.83,-4.83 v -36.906 c 0,-2.657 -2.173,-4.83 -4.83,-4.83 h -3.202 c -2.657,0 -4.83,2.173 -4.83,4.83 v 36.906 c 0,2.656 2.173,4.83 4.83,4.83 z"
   id="path190" />
<g
   id="g196"
   transform="translate(-32.099,-52.770096)">
	<g
   id="g194">
		<path
   fill="#0b8036"
   d="m 296.875,356.97 c -2.657,0 -4.83,2.173 -4.83,4.83 v 2.591 c 0,2.657 2.173,4.814 4.83,4.797 0,0 0.25,-0.002 2.627,0.699 1.928,0.567 1.928,0.567 1.928,0.567 1.913,-0.429 3.477,-2.954 3.477,-5.611 V 361.8 c 0,-2.657 -2.173,-4.83 -4.83,-4.83 z"
   id="path192" />
	</g>
</g>
<path
   fill="#0b8036"
   d="m 286.445,104.3989 c 2.657,0 4.83,-2.173 4.83,-4.829996 v -21.896 c 0,-2.656 -1.918,-4.793 -4.262,-4.746 -2.344,0.047 -8.526,2.533 -8.526,5.19 v 21.452 c 0,2.656996 2.173,4.829996 4.83,4.829996 z"
   id="path198" />
<path
   fill="#69b42d"
   d="m 286.445,133.5389 c 2.657,0 4.83,-2.173 4.83,-4.83 v -13.414 c 0,-2.656 -2.173,-4.83 -4.83,-4.83 h -3.128 c -2.657,0 -4.83,2.174 -4.83,4.83 v 13.414 c 0,2.657 2.173,4.83 4.83,4.83 z"
   id="path200" />
<g
   id="g204"
   transform="translate(-32.099,-52.770096)">
	<path
   fill="#a2ce90"
   d="m 318.544,246.316 c 2.657,0 4.83,-2.173 4.83,-4.83 v -44.282 c 0,-2.656 -2.173,-4.83 -4.83,-4.83 h -3.128 c -2.657,0 -4.83,2.174 -4.83,4.83 v 44.282 c 0,2.657 2.173,4.83 4.83,4.83 z"
   id="path202" />
</g>
<g
   id="g214"
   transform="translate(-32.099,-52.770096)">
	<g
   id="g208">
		<path
   fill="#69b42d"
   d="m 50.638,112.779 c 0,2.038 2.173,3.705 4.83,3.705 h 3.2 c 2.657,0 4.83,-2.174 4.83,-4.83 V 65.199 c 0,-2.655 -1.65,-5.8 -3.667,-6.983 0,0 0,0 -1.76,-1.221 -2.685,-1.863 -3.937,-3.058 -3.937,-3.058 -1.922,-1.833 -3.496,-1.466 -3.496,0.816 0,2.28 0.937,6.109 2.081,8.506 0,0 3.898,8.163 7.896,13.958 0.867,1.256 1.639,2.578 2.416,3.894 0.135,0.23 0.135,0.23 0.135,0.23 0.003,0.52 -0.87,0.877 -1.941,0.792 0,0 0,0 -0.79,-0.323 -3.259,-1.34 -5.32,-2.175 -5.32,-2.175 -2.463,-0.996 -4.478,0.364 -4.478,3.02 v 18.411 c 0,2.656 0.224,5.076 0.5,5.376 0,0 0,0 0.242,0.281 0.661,0.77 0.661,0.77 0.661,0.77 0.45,1.108 0.483,1.951 0.075,1.876 -0.408,-0.077 -1.477,1.372 -1.477,3.41 z"
   id="path206" />
	</g>
	<g
   id="g212">
		<path
   fill="#0b8036"
   d="m 55.468,122.55 c -2.657,0 -4.83,2.175 -4.83,4.83 v 1.06 c 0,2.657 1.457,6.444 3.236,8.417 0,0 1.465,1.624 4.043,4.076 1.793,1.705 1.858,1.76 1.858,1.76 2.048,1.691 3.723,0.904 3.723,-1.753 v -13.56 c 0,-2.655 -2.173,-4.83 -4.83,-4.83 z"
   id="path210" />
	</g>
</g>
<g
   id="g222"
   transform="translate(-32.099,-52.770096)">
	<path
   fill="#ffffff"
   d="m 351.097,191.342 c 0,-14.502 2.673,-25.447 8.022,-32.837 5.348,-7.388 12.781,-11.082 22.299,-11.082 9.879,0 17.405,3.694 22.572,11.082 5.167,7.39 7.75,18.335 7.75,32.837 0,14.506 -2.63,25.451 -7.886,32.838 -5.259,7.39 -12.692,11.082 -22.3,11.082 -9.881,0 -17.428,-3.692 -22.64,-11.082 -5.213,-7.387 -7.817,-18.332 -7.817,-32.838 z m 16.996,0 c 0,4.08 0.157,7.91 0.476,11.49 0.316,3.582 0.952,6.686 1.903,9.314 0.952,2.63 2.288,4.715 4.011,6.254 1.721,1.543 4.033,2.312 6.935,2.312 2.809,0 5.099,-0.77 6.867,-2.312 1.768,-1.539 3.127,-3.646 4.079,-6.322 0.952,-2.672 1.585,-5.779 1.904,-9.314 0.316,-3.535 0.476,-7.342 0.476,-11.422 0,-4.078 -0.16,-7.907 -0.476,-11.489 -0.319,-3.579 -0.952,-6.685 -1.904,-9.313 -0.952,-2.629 -2.29,-4.713 -4.011,-6.256 -1.723,-1.54 -4.035,-2.311 -6.935,-2.311 -2.902,0 -5.213,0.771 -6.935,2.311 -1.723,1.543 -3.059,3.65 -4.011,6.323 -0.952,2.675 -1.587,5.778 -1.903,9.313 -0.319,3.536 -0.476,7.344 -0.476,11.422 z"
   id="path216" />
	<path
   fill="#ffffff"
   d="m 455.66,179.105 c 0.361,1.723 0.905,3.854 1.632,6.391 0.725,2.538 1.517,5.35 2.38,8.43 0.86,3.083 1.812,6.391 2.855,9.926 1.041,3.535 2.061,7.162 3.059,10.879 0,-4.713 -0.121,-9.768 -0.363,-15.162 -0.242,-5.392 -0.482,-10.898 -0.725,-16.521 -0.242,-5.619 -0.484,-11.307 -0.727,-17.064 -0.242,-5.755 -0.36,-11.308 -0.36,-16.657 h 16.86 c -0.272,6.891 -0.544,13.984 -0.815,21.28 -0.272,7.298 -0.591,14.55 -0.952,21.756 -0.363,7.206 -0.795,14.3 -1.292,21.28 -0.499,6.98 -1.066,13.597 -1.699,19.852 h -13.87 c -1.994,-5.711 -3.989,-11.852 -5.982,-18.424 -1.995,-6.572 -3.99,-12.85 -5.982,-18.833 -1.995,5.711 -4.079,11.921 -6.255,18.628 -2.176,6.71 -4.171,12.918 -5.983,18.629 H 423.57 c -0.727,-6.255 -1.359,-12.895 -1.903,-19.92 -0.544,-7.023 -1.02,-14.142 -1.428,-21.348 -0.408,-7.207 -0.748,-14.458 -1.02,-21.756 -0.272,-7.296 -0.499,-14.346 -0.68,-21.145 h 15.5 c -0.091,5.35 -0.183,10.879 -0.271,16.59 -0.092,5.711 -0.183,11.4 -0.272,17.064 -0.091,5.666 -0.183,11.196 -0.271,16.588 -0.092,5.395 -0.136,10.449 -0.136,15.162 0.815,-2.9 1.744,-6.072 2.787,-9.519 1.041,-3.444 2.04,-6.844 2.991,-10.198 0.952,-3.353 1.836,-6.436 2.651,-9.246 0.816,-2.809 1.449,-5.031 1.904,-6.662 z"
   id="path218" />
	<path
   fill="#ffffff"
   d="m 545.946,233.494 h -52.894 v -84.168 h 16.86 v 70.299 h 36.033 v 13.869 z"
   id="path220" />
</g>
<path
   fill="#0b8036"
   d="m 250.274,237.1389 c 1.089,-3.114 2.428,-5.994 3.992,-8.636 v -90.135 c 0,-2.657 -2.173,-4.83 -4.83,-4.83 h -3.199 c -2.657,0 -4.83,2.173 -4.83,4.83 v 35.613 c 0,2.657 0.558,6.932 1.239,9.498 0,0 1.268,4.778 3.107,9.367 2.777,6.929 4.679,14.075 4.83,21.602 0.2,9.941 -6.783,22.188 -6.783,22.188 -1.316,2.308 -2.393,4.318 -2.393,4.47 0,0.15 2.173,0.273 4.83,0.273 h 2.774 c 0.367,-1.458 0.785,-2.875 1.263,-4.24 z"
   id="path224" />
<path
   fill="#a2ce90"
   d="m 272.564,212.4019 c 0.046,-0.02 0.095,-0.036 0.142,-0.055 -0.456,-2.192 -2.407,-3.852 -4.729,-3.852 h -3.202 c -2.657,0 -4.83,2.173 -4.83,4.83 v 7.697 c 3.598,-3.716 7.831,-6.62 12.619,-8.62 z"
   id="path226" />
<g
   id="g232"
   transform="translate(-32.099,-52.770096)">
	<path
   fill="#0b8036"
   d="m 321.501,261.939 c 0.637,0 1.256,0.02 1.873,0.041 v -4.769 c 0,-2.656 -2.173,-4.83 -4.83,-4.83 h -3.128 c -2.657,0 -4.83,2.174 -4.83,4.83 v 6.014 c 3.466,-0.853 7.117,-1.286 10.915,-1.286 z"
   id="path228" />
	<path
   fill="#0b8036"
   d="m 314.972,285.654 c -1.611,0.614 -3.049,1.598 -4.386,2.945 v 9.306 c 0,2.657 2.173,4.83 4.83,4.83 h 3.128 c 2.657,0 4.83,-2.173 4.83,-4.83 v -13.349 c -0.699,-0.039 -1.409,-0.068 -2.145,-0.068 -2.127,0 -4.232,0.393 -6.257,1.166 z"
   id="path230" />
</g>
<path
   fill="#a2ce90"
   d="m 247.193,257.0889 c 0,-3.365 0.226,-6.58 0.651,-9.644 h -1.608 c -2.657,0 -4.83,2.174 -4.83,4.83 v 27.167 c 0,2.656 2.173,4.83 4.83,4.83 h 3.199 c 0.996,0 1.924,-0.306 2.695,-0.827 -3.279,-7.209 -4.937,-16.029 -4.937,-26.356 z"
   id="path234" />
<path
   fill="#69b42d"
   d="m 286.445,256.0319 h -3.128 c -2.657,0 -4.83,2.173 -4.83,4.83 v 18.069 c 2.564,2.359 6.157,3.527 10.915,3.527 0.646,0 1.266,-0.016 1.873,-0.039 v -21.558 c 0,-2.656 -2.173,-4.829 -4.83,-4.829 z"
   id="path236" />
<path
   fill="#a2ce90"
   d="m 287.77,305.0079 c -3.151,0 -6.13,-0.258 -8.942,-0.76 -0.213,0.544 -0.341,1.13 -0.341,1.748 v 4.236 c 0,2.657 0.238,4.969 0.53,5.138 0,0 0,0 0.284,0.199 1.75,1.231 3.927,1.921 5.993,2.625 2.458,0.84 2.839,1.283 2.839,1.283 1.728,2.017 3.143,1.494 3.143,-1.163 v -12.318 c 0,-0.372 -0.052,-0.731 -0.133,-1.08 -1.103,0.056 -2.223,0.092 -3.373,0.092 z"
   id="path238" />
<g
   id="g256"
   transform="translate(-32.099,-52.770096)">
	<path
   fill="#ffffff"
   d="m 320.46,353.452 c -11.872,0 -20.932,-3.806 -27.184,-11.417 -6.252,-7.611 -9.378,-18.438 -9.378,-32.484 0,-6.977 0.951,-13.184 2.854,-18.621 1.903,-5.437 4.553,-10.034 7.951,-13.795 3.398,-3.76 7.429,-6.613 12.097,-8.563 4.666,-1.947 9.763,-2.922 15.291,-2.922 2.99,0 5.685,0.25 8.087,0.747 2.399,0.499 4.506,1.066 6.32,1.699 1.812,0.635 3.33,1.314 4.554,2.039 1.223,0.726 2.151,1.27 2.786,1.631 l -4.35,13.32 c -2.085,-1.359 -4.6,-2.515 -7.543,-3.467 -2.945,-0.951 -6.32,-1.427 -10.126,-1.427 -2.629,0 -5.188,0.476 -7.679,1.427 -2.493,0.952 -4.712,2.538 -6.66,4.758 -1.949,2.222 -3.534,5.188 -4.757,8.902 -1.224,3.717 -1.835,8.338 -1.835,13.864 0,9.605 1.652,16.968 4.961,22.086 3.307,5.121 8.72,7.68 16.242,7.68 4.35,0 7.951,-0.497 10.806,-1.495 2.854,-0.996 5.142,-1.992 6.864,-2.99 l 4.213,13.185 c -2.357,1.45 -5.551,2.786 -9.582,4.009 -4.033,1.223 -8.678,1.834 -13.932,1.834 z"
   id="path240" />
	<path
   fill="#ffffff"
   d="m 412.341,319.608 c 0,5.076 -0.726,9.674 -2.174,13.796 -1.451,4.124 -3.489,7.68 -6.117,10.67 -2.629,2.99 -5.776,5.301 -9.446,6.932 -3.669,1.631 -7.771,2.446 -12.3,2.446 -4.532,0 -8.631,-0.815 -12.301,-2.446 -3.67,-1.631 -6.843,-3.941 -9.514,-6.932 -2.674,-2.99 -4.736,-6.546 -6.185,-10.67 -1.45,-4.122 -2.175,-8.72 -2.175,-13.796 0,-4.981 0.748,-9.535 2.243,-13.659 1.495,-4.122 3.579,-7.656 6.252,-10.602 2.672,-2.943 5.866,-5.21 9.582,-6.796 3.715,-1.585 7.748,-2.379 12.097,-2.379 4.438,0 8.495,0.794 12.165,2.379 3.67,1.586 6.84,3.853 9.514,6.796 2.672,2.945 4.734,6.479 6.185,10.602 1.448,4.124 2.174,8.678 2.174,13.659 z m -43.222,0.137 c 0,5.708 1.019,10.329 3.058,13.863 2.039,3.534 5.322,5.301 9.854,5.301 4.349,0 7.633,-1.767 9.854,-5.301 2.219,-3.534 3.33,-8.155 3.33,-13.863 0,-5.709 -1.02,-10.307 -3.058,-13.796 -2.039,-3.487 -5.324,-5.233 -9.854,-5.233 -4.35,0 -7.635,1.746 -9.854,5.233 -2.221,3.489 -3.33,8.087 -3.33,13.796 z"
   id="path242" />
	<path
   fill="#ffffff"
   d="m 462.768,287.124 c 3.533,0 6.432,0.544 8.697,1.631 2.266,1.088 4.055,2.719 5.369,4.894 1.312,2.175 2.197,4.916 2.65,8.223 0.453,3.31 0.68,7.183 0.68,11.621 v 38.193 h -13.592 v -39.009 c 0,-2.535 -0.158,-4.574 -0.475,-6.116 -0.318,-1.54 -0.727,-2.719 -1.225,-3.534 -0.498,-0.815 -1.086,-1.358 -1.766,-1.631 -0.68,-0.271 -1.383,-0.407 -2.107,-0.407 -0.816,0 -1.678,0.067 -2.582,0.203 -0.906,0.137 -1.723,0.387 -2.447,0.748 0.271,1.723 0.498,3.625 0.68,5.709 0.182,2.085 0.271,4.396 0.271,6.932 v 12.776 H 443.33 v -14.68 c 0,-4.35 -0.43,-7.384 -1.291,-9.106 -0.861,-1.72 -2.242,-2.582 -4.145,-2.582 -0.545,0 -1.203,0.047 -1.971,0.136 -0.771,0.091 -1.52,0.228 -2.244,0.407 v 50.154 H 420.088 V 290.25 c 3.534,-0.996 7.021,-1.767 10.466,-2.311 3.441,-0.543 6.477,-0.815 9.105,-0.815 2.355,0 4.463,0.296 6.32,0.884 1.857,0.591 3.467,1.563 4.826,2.922 1.539,-0.996 3.352,-1.879 5.436,-2.65 2.085,-0.769 4.259,-1.156 6.527,-1.156 z"
   id="path244" />
	<path
   fill="#ffffff"
   d="m 547.853,319.745 c 0,4.893 -0.544,9.401 -1.632,13.523 -1.087,4.124 -2.673,7.658 -4.757,10.602 -2.085,2.945 -4.712,5.233 -7.883,6.864 -3.173,1.631 -6.843,2.446 -11.01,2.446 -4.26,0 -8.654,-1.043 -13.184,-3.126 v 24.058 h -16.719 v -84.27 c 3.08,-0.996 6.864,-1.812 11.35,-2.446 4.485,-0.633 8.902,-0.952 13.252,-0.952 9.875,0 17.442,2.99 22.698,8.971 5.255,5.981 7.885,14.091 7.885,24.33 z m -16.991,0.543 c 0,-5.708 -1.134,-10.397 -3.397,-14.067 -2.267,-3.67 -5.709,-5.505 -10.33,-5.505 -1.271,0 -2.629,0.068 -4.078,0.204 -1.45,0.136 -2.674,0.251 -3.669,0.34 v 35.067 c 1.087,0.726 2.535,1.314 4.349,1.767 1.812,0.454 3.623,0.68 5.438,0.68 3.985,0 6.932,-1.607 8.834,-4.825 1.902,-3.217 2.853,-7.769 2.853,-13.661 z"
   id="path246" />
	<path
   fill="#ffffff"
   d="m 611.598,349.511 c -3.081,0.815 -6.819,1.631 -11.213,2.446 -4.396,0.815 -9.175,1.224 -14.34,1.224 -5.256,0 -9.561,-0.727 -12.912,-2.175 -3.354,-1.448 -6.004,-3.511 -7.951,-6.185 -1.949,-2.671 -3.285,-5.82 -4.01,-9.446 -0.727,-3.623 -1.087,-7.611 -1.087,-11.961 v -35.61 h 16.718 v 33.437 c 0,5.891 0.7,10.262 2.106,13.115 1.404,2.854 4.146,4.282 8.224,4.282 2.535,0 5.073,-0.226 7.611,-0.68 v -50.154 h 16.854 z"
   id="path248" />
	<path
   fill="#ffffff"
   d="m 639.461,301.668 h -14.544 v -13.864 h 14.544 v -16.038 l 16.718,-2.719 v 18.757 h 26.776 v 13.864 h -26.776 v 25.824 c 0,2.357 0.226,4.26 0.68,5.708 0.452,1.451 1.087,2.583 1.902,3.398 0.816,0.815 1.812,1.359 2.99,1.631 1.177,0.271 2.491,0.408 3.942,0.408 1.539,0 2.967,-0.045 4.281,-0.137 1.312,-0.089 2.582,-0.248 3.806,-0.476 1.223,-0.225 2.491,-0.564 3.806,-1.019 1.312,-0.453 2.739,-1.041 4.281,-1.768 l 2.311,14.407 c -3.081,1.271 -6.411,2.175 -9.99,2.719 -3.58,0.544 -7.046,0.815 -10.397,0.815 -3.896,0 -7.34,-0.318 -10.33,-0.951 -2.99,-0.633 -5.527,-1.856 -7.611,-3.67 -2.085,-1.812 -3.67,-4.371 -4.757,-7.68 -1.087,-3.307 -1.631,-7.633 -1.631,-12.98 v -26.229 z"
   id="path250" />
	<path
   fill="#ffffff"
   d="m 692.197,320.288 c 0,-5.617 0.859,-10.555 2.582,-14.814 1.721,-4.259 3.986,-7.815 6.796,-10.67 2.808,-2.854 6.025,-5.006 9.65,-6.456 3.623,-1.448 7.34,-2.175 11.146,-2.175 9.423,0 16.582,2.786 21.475,8.359 4.894,5.572 7.34,13.706 7.34,24.397 0,1.087 -0.023,2.221 -0.068,3.397 -0.047,1.179 -0.114,2.13 -0.203,2.854 H 709.46 c 0,4.169 1.72,7.454 5.164,9.854 3.443,2.402 7.884,3.603 13.32,3.603 3.352,0 6.545,-0.361 9.582,-1.088 3.035,-0.724 5.594,-1.448 7.68,-2.175 l 2.311,14.271 c -2.901,0.998 -5.98,1.835 -9.242,2.515 -3.263,0.68 -6.932,1.02 -11.01,1.02 -5.437,0 -10.309,-0.703 -14.611,-2.106 -4.305,-1.404 -7.975,-3.487 -11.009,-6.253 -3.037,-2.763 -5.369,-6.184 -7,-10.262 -1.632,-4.077 -2.448,-8.833 -2.448,-14.271 z m 42.814,-6.66 c 0,-1.72 -0.227,-3.374 -0.679,-4.961 -0.455,-1.584 -1.179,-3.011 -2.175,-4.281 -0.998,-1.268 -2.267,-2.287 -3.806,-3.058 -1.542,-0.77 -3.445,-1.155 -5.709,-1.155 -2.175,0 -4.057,0.362 -5.641,1.087 -1.586,0.727 -2.901,1.723 -3.941,2.99 -1.043,1.27 -1.858,2.719 -2.446,4.35 -0.591,1.631 -0.976,3.309 -1.155,5.028 z"
   id="path252" />
	<path
   fill="#ffffff"
   d="m 815.34,304.794 c -1.088,-0.272 -2.379,-0.544 -3.874,-0.815 -1.495,-0.272 -3.014,-0.521 -4.553,-0.748 -1.542,-0.225 -3.037,-0.384 -4.485,-0.476 -1.451,-0.089 -2.674,-0.136 -3.67,-0.136 -2.357,0 -4.668,0.114 -6.932,0.34 -2.267,0.227 -4.577,0.658 -6.933,1.291 v 47.436 H 768.04 v -59.668 c 4.438,-1.631 8.992,-2.943 13.66,-3.941 4.666,-0.996 10.126,-1.495 16.378,-1.495 0.904,0 2.196,0.046 3.874,0.136 1.675,0.091 3.466,0.25 5.368,0.476 1.903,0.228 3.827,0.499 5.776,0.815 1.948,0.318 3.691,0.747 5.233,1.291 z"
   id="path254" />
</g>
<g
   id="g258"
   transform="translate(-32.099,-52.770096)">
</g>
<g
   id="g260"
   transform="translate(-32.099,-52.770096)">
</g>
<g
   id="g262"
   transform="translate(-32.099,-52.770096)">
</g>
<g
   id="g264"
   transform="translate(-32.099,-52.770096)">
</g>
<g
   id="g266"
   transform="translate(-32.099,-52.770096)">
</g>
<g
   id="g268"
   transform="translate(-32.099,-52.770096)">
</g>
</svg>
