<?xml version="1.0" encoding="UTF-8" standalone="no"?>
<!-- Generator: Adobe Illustrator 16.0.0, SVG Export Plug-In . SVG Version: 6.00 Build 0)  -->

<svg
   version="1.1"
   id="Ebene_1"
   x="0px"
   y="0px"
   width="291.27802"
   height="320.70486"
   viewBox="0 0 291.27801 320.70486"
   enable-background="new 0 0 425.2 425.2"
   xml:space="preserve"
   sodipodi:docname="owlcomputer_icon_weissgruen_hellgruen.svg"
   inkscape:version="1.1.1 (3bf5ae0d25, 2021-09-20)"
   xmlns:inkscape="http://www.inkscape.org/namespaces/inkscape"
   xmlns:sodipodi="http://sodipodi.sourceforge.net/DTD/sodipodi-0.dtd"
   xmlns="http://www.w3.org/2000/svg"
   xmlns:svg="http://www.w3.org/2000/svg"><defs
   id="defs255" /><sodipodi:namedview
   id="namedview253"
   pagecolor="#ffffff"
   bordercolor="#666666"
   borderopacity="1.0"
   inkscape:pageshadow="2"
   inkscape:pageopacity="0.0"
   inkscape:pagecheckerboard="0"
   showgrid="false"
   inkscape:zoom="1.9096895"
   inkscape:cx="144.78794"
   inkscape:cy="161.02094"
   inkscape:window-width="1920"
   inkscape:window-height="1001"
   inkscape:window-x="-9"
   inkscape:window-y="1067"
   inkscape:window-maximized="1"
   inkscape:current-layer="Ebene_1" />
<path
   fill="#a2ce90"
   d="m 193.819,162.4589 c 2.656,0 4.83,-2.173 4.83,-4.83 v -16.228 c 0,-2.657 -2.174,-4.83 -4.83,-4.83 h -3.201 c -2.657,0 -4.83,2.173 -4.83,4.83 v 16.228 c 0,2.657 2.173,4.83 4.83,4.83 z"
   id="path2" />
<path
   fill="#0b8036"
   d="m 156.739,146.7649 c 2.656,0 4.83,-2.173 4.83,-4.83 V 93.255904 c 0,-2.656 -2.174,-4.829 -4.83,-4.829 h -3.201 c -2.657,0 -4.83,2.173 -4.83,4.829 V 141.9349 c 0,2.657 2.173,4.83 4.83,4.83 z"
   id="path4" />
<path
   fill="#a2ce90"
   d="m 175.278,113.6049 c 2.656,0 4.83,-2.173 4.83,-4.83 V 94.753904 c 0,-2.657 -2.174,-4.83 -4.83,-4.83 h -3.199 c -2.657,0 -4.83,2.173 -4.83,4.83 V 108.7749 c 0,2.657 2.173,4.83 4.83,4.83 z"
   id="path6" />
<path
   fill="#69b42d"
   d="m 193.819,130.5049 c 2.656,0 4.83,-2.173 4.83,-4.829 v -21.781 c 0,-2.656 -2.174,-4.829996 -4.83,-4.829996 h -3.201 c -2.657,0 -4.83,2.173996 -4.83,4.829996 v 21.781 c 0,2.656 2.173,4.829 4.83,4.829 z"
   id="path8" />
<path
   fill="#0b8036"
   d="m 212.358,146.7649 c 2.656,0 4.83,-2.173 4.83,-4.83 v -26.641 c 0,-2.656 -2.174,-4.83 -4.83,-4.83 h -3.199 c -2.657,0 -4.83,2.174 -4.83,4.83 v 26.641 c 0,2.657 2.173,4.83 4.83,4.83 z"
   id="path10" />
<path
   fill="#a2ce90"
   d="m 156.739,82.359904 c 2.656,0 4.83,-2.173 4.83,-4.83 v -25.461 c 0,-2.657 -1.514,-6.391 -3.361,-8.299 l -5.562,-4.973 c -2.167,-1.538 -3.938,-0.623 -3.938,2.034 v 36.698 c 0,2.657 2.173,4.83 4.83,4.83 h 3.201 z"
   id="path12" />
<path
   fill="#0b8036"
   d="m 175.278,83.857904 c 2.656,0 4.83,-2.174 4.83,-4.83 v -0.675 c 0,-2.656 -1.628,-6.27 -3.617,-8.03 l -6.687,-8.056 c -1.405,-2.254 -2.556,-1.924 -2.556,0.732 v 16.028 c 0,2.656 2.173,4.83 4.83,4.83 h 3.2 z"
   id="path14" />
<path
   fill="#a2ce90"
   d="m 193.819,92.998904 c 2.656,0 4.83,-2.007 4.83,-4.458 0,-2.452 -1.908,-5.498 -4.241,-6.77 l -4.432,-2.427 c -2.304,-1.322 -4.188,-0.231 -4.188,2.425 v 6.399 c 0,2.657 2.173,4.83 4.83,4.83 h 3.201 z"
   id="path16" />
<path
   fill="#69b42d"
   d="m 212.358,104.3979 c 2.656,0 4.83,-2.173 4.83,-4.829996 v -2.504 c 0,-2.655 -1.945,-5.589 -4.323,-6.514 -2.378,-0.928 -8.536,-1.486 -8.536,1.17 v 7.848 c 0,2.656996 2.173,4.829996 4.83,4.829996 z"
   id="path18" />
<path
   fill="#69b42d"
   d="m 283.319,256.0309 c -2.656,0 -4.83,2.173 -4.83,4.83 v 29.409 c 0,2.656 2.174,4.829 4.83,4.829 h 3.129 c 2.656,0 4.83,-2.173 4.83,-4.829 v -29.409 c 0,-2.657 -2.174,-4.83 -4.83,-4.83 z"
   id="path20" />
<path
   fill="#a2ce90"
   d="m 283.319,301.1659 c -2.656,0 -4.83,2.173 -4.83,4.83 v 4.236 c 0,2.657 0.238,4.969 0.531,5.138 0,0 0,0 0.283,0.199 1.75,1.231 3.928,1.921 5.992,2.625 2.459,0.84 2.84,1.283 2.84,1.283 1.728,2.017 3.143,1.494 3.143,-1.163 v -12.318 c 0,-2.657 -2.174,-4.83 -4.83,-4.83 z"
   id="path22" />
<path
   fill="#a2ce90"
   d="m 138.198,118.7899 c 2.656,0 4.83,-2.174 4.83,-4.83 V 74.608904 c 0,-2.655 -2.174,-4.83 -4.83,-4.83 h -3.199 c -2.657,0 -4.83,2.175 -4.83,4.83 V 113.9599 c 0,2.656 2.173,4.83 4.83,4.83 z"
   id="path24" />
<path
   fill="#0b8036"
   d="m 138.198,63.713904 c 2.656,0 4.83,-1.781 4.83,-3.958 0,-2.177 -1.842,-5.114 -4.092,-6.525 l -4.523,-2.693 c -2.334,-1.267 -4.244,-0.131 -4.244,2.526 v 5.82 c 0,2.656 2.173,4.83 4.83,4.83 z"
   id="path26" />
<path
   fill="#0b8036"
   d="m 116.457,168.5249 c -2.657,0 -4.83,2.173 -4.83,4.83 v 11.404 c 0,2.657 2.157,5.093 4.795,5.415 0,0 0.508,0.062 3.215,-0.651 2.698,-0.71 3.368,-0.253 4.204,2.356 0.184,0.565 0.184,0.565 0.184,0.565 0.256,0.605 0.465,-1.072 0.465,-3.729 v -15.36 c 0,-2.657 -2.174,-4.83 -4.83,-4.83 z"
   id="path28" />
<path
   fill="#69b42d"
   d="m 215.219,284.2979 c 0.355,2.396 0.843,4.42 1.084,4.498 0.24,0.077 0.885,-1.888 0.885,-4.545 v -9.505 c 0,-2.656 -0.566,-4.01 -1.258,-3.009 0,0 0,0 -0.619,0.917 -2.041,3.021 -2.048,6.43 -0.744,9.906 0.652,1.738 0.652,1.738 0.652,1.738 z"
   id="path30" />
<path
   fill="#0b8036"
   d="m 68.867,144.9969 c 0,-2.656 -0.835,-3.804 -1.856,-2.55 0,0 0,0 -1.154,0.831 -3.135,2.256 -4.811,5.467 -6.295,8.856 -1.131,2.586 -1.553,3.514 -1.553,3.514 -1.1,2.418 -2.001,4.447 -2.001,4.508 0,0.062 1.931,0.894 4.29,1.846 2.359,0.952 8.569,1.317 8.569,-1.34 z"
   id="path32" />
<g
   id="g42"
   transform="translate(-67.554,-51.585096)">
	<g
   id="g36">
		<path
   fill="#a2ce90"
   d="m 80.416,79.076 c 0,-2.655 -1.445,-5.467 -3.211,-6.243 0,0 0,0 -1.588,-0.746 -3.764,-1.767 -4.755,-2.821 -4.755,-2.821 -1.819,-1.938 -3.308,-1.347 -3.308,1.309 v 0.821 c 0,2.655 0.919,6.8 2.043,9.207 l 7.965,13.845 c 1.569,2.143 2.854,1.723 2.854,-0.934 z"
   id="path34" />
	</g>
	<g
   id="g40">
		<path
   fill="#0b8036"
   d="m 78.004,120.397 c 1.326,2.301 2.412,2.01 2.412,-0.646 v -8.64 c 0,-2.655 -1.559,-5.599 -3.465,-6.538 -1.906,-0.938 -5.915,-3.004 -5.535,-0.375 0,0 0.118,0.815 0.933,3.488 1.877,6.157 5.655,12.711 5.655,12.711 z"
   id="path38" />
	</g>
</g>
<path
   fill="#a2ce90"
   d="m 45.498,31.062904 c 2.657,0 4.83,-2.175 4.83,-4.83 v -5.526 c 0,-2.656 -1.952,-5.554 -4.34,-6.438 -2.388,-0.885 -8.521,-1.384 -8.521,1.273 v 10.69 c 0,2.655 2.173,4.83 4.83,4.83 h 3.201 z"
   id="path44" />
<g
   id="g54"
   transform="translate(-67.554,-51.585096)">
	<g
   id="g48">
		<path
   fill="#a2ce90"
   d="m 109.851,140.012 c -2.657,0 -4.83,2.016 -4.83,4.48 0,2.462 1.845,5.628 4.099,7.034 0,0 0.463,0.288 2.857,1.549 0.539,0.281 1.08,0.583 1.565,0.949 1.813,1.36 1.817,2.336 -0.241,3.335 -3.612,1.753 -5.309,3.927 -5.309,3.927 -1.634,2.093 -2.972,5.98 -2.972,8.637 v 2.721 c 0,2.656 1.856,5.96 4.126,7.34 0,0 1.629,0.992 4.496,2.759 1.39,0.856 1.39,0.856 1.39,0.856 1.567,0.839 2.85,-0.648 2.85,-3.306 v -35.452 c 0,-2.656 -2.173,-4.829 -4.83,-4.829 z"
   id="path46" />
	</g>
	<g
   id="g52">
		<path
   fill="#0b8036"
   d="m 113.052,133.945 c 2.657,0 4.83,-2.173 4.83,-4.83 V 93.544 c 0,-2.657 -2.173,-4.83 -4.83,-4.83 h -3.201 c -2.657,0 -4.83,2.173 -4.83,4.83 v 35.571 c 0,2.657 2.173,4.83 4.83,4.83 z"
   id="path50" />
	</g>
</g>
<path
   fill="#a2ce90"
   d="m 64.037,42.383904 c 2.657,0 4.83,-2.174 4.83,-4.83 v -10.396 c 0,-2.655 -1.927,-5.509 -4.282,-6.337 -2.355,-0.829 -8.577,-0.807 -8.577,1.849 v 14.884 c 0,2.656 2.173,4.83 4.83,4.83 z"
   id="path56" />
<path
   fill="#0b8036"
   d="m 64.037,67.460904 c 2.657,0 4.83,-2.174 4.83,-4.83 v -9.352 c 0,-2.655 -2.173,-4.83 -4.83,-4.83 h -3.199 c -2.657,0 -4.83,2.175 -4.83,4.83 v 9.352 c 0,2.656 2.173,4.83 4.83,4.83 z"
   id="path58" />
<g
   id="g68"
   transform="translate(-67.554,-51.585096)">
	<g
   id="g62">
		<path
   fill="#69b42d"
   d="m 131.591,170.375 c 2.657,0 4.83,-2.174 4.83,-4.83 v -35.603 c 0,-2.656 -2.173,-4.83 -4.83,-4.83 h -3.199 c -2.657,0 -4.83,2.174 -4.83,4.83 v 35.603 c 0,2.656 2.173,4.83 4.83,4.83 z"
   id="path60" />
	</g>
	<g
   id="g66">
		<path
   fill="#a2ce90"
   d="m 128.392,176.44 c -2.657,0 -4.83,2.173 -4.83,4.83 v 1.496 c 0,2.657 2.069,5.497 4.597,6.312 0,0 1.01,0.326 3.977,0.834 1.488,0.254 1.488,0.254 1.488,0.254 1.539,0.854 2.798,-0.62 2.798,-3.276 v -5.62 c 0,-2.657 -2.173,-4.83 -4.83,-4.83 z"
   id="path64" />
	</g>
</g>
<path
   fill="#69b42d"
   d="m 79.377,157.8299 c -2.657,0 -4.83,2.173 -4.83,4.83 v 0.297 c 0,2.657 1.921,5.286 4.269,5.843 2.348,0.557 8.593,-1.38 8.593,-4.036 v -2.104 c 0,-2.657 -2.173,-4.83 -4.829,-4.83 z"
   id="path70" />
<path
   fill="#a2ce90"
   d="m 79.377,112.3299 c -2.657,0 -4.83,2.173 -4.83,4.83 v 29.774 c 0,2.656 2.173,4.83 4.83,4.83 h 3.202 c 2.656,0 4.829,-2.174 4.829,-4.83 v -29.774 c 0,-2.657 -2.173,-4.83 -4.829,-4.83 z"
   id="path72" />
<g
   id="g82"
   transform="translate(-67.554,-51.585096)">
	<g
   id="g76">
		<path
   fill="#69b42d"
   d="m 150.133,115.299 c 2.656,0 4.829,-2.174 4.829,-4.83 V 85.728 c 0,-2.655 -1.923,-5.582 -4.274,-6.503 -2.353,-0.918 -8.587,-1.08 -8.587,1.575 v 29.669 c 0,2.656 2.173,4.83 4.83,4.83 z"
   id="path74" />
	</g>
	<g
   id="g80">
		<path
   fill="#0b8036"
   d="m 146.931,121.364 c -2.657,0 -4.83,2.175 -4.83,4.83 v 26.825 c 0,2.656 2.173,4.83 4.83,4.83 h 3.202 c 2.656,0 4.829,-2.174 4.829,-4.83 v -26.825 c 0,-2.655 -2.173,-4.83 -4.829,-4.83 z"
   id="path78" />
	</g>
</g>
<path
   fill="#0b8036"
   d="m 101.118,54.348904 c 2.656,0 4.829,-2.174 4.829,-4.829 v -7.411 c 0,-2.655 -1.638,-5.546 -3.638,-6.423 0,0 0,0 -1.811,-0.817 -2.457,-1.11 -2.967,-1.328 -2.967,-1.328 -2.443,-1.039 -4.443,0.282 -4.443,2.938 v 13.041 c 0,2.655 2.172,4.829 4.829,4.829 z"
   id="path84" />
<path
   fill="#a2ce90"
   d="m 101.118,112.3299 c 2.656,0 4.829,-2.173 4.829,-4.83 V 65.244904 c 0,-2.656 -2.173,-4.83 -4.829,-4.83 h -3.2 c -2.657,0 -4.829,2.174 -4.829,4.83 V 107.4999 c 0,2.657 2.172,4.83 4.829,4.83 z"
   id="path86" />
<g
   id="g96"
   transform="translate(-67.554,-51.585096)">
	<g
   id="g90">
		<path
   fill="#0b8036"
   d="m 168.672,193.856 c 2.656,0 4.829,-2.173 4.829,-4.83 V 174.81 c 0,-2.656 -2.173,-4.83 -4.829,-4.83 h -3.2 c -2.657,0 -4.829,2.174 -4.829,4.83 v 14.216 c 0,2.657 2.172,4.83 4.829,4.83 z"
   id="path88" />
	</g>
	<g
   id="g94">
		<path
   fill="#69b42d"
   d="m 165.472,199.923 c -2.657,0 -4.829,2.173 -4.829,4.83 v 10.927 c 0,2.656 0.891,4.654 1.98,4.441 0,0 0,0 0.994,-0.236 1.857,-0.443 3.674,-1.069 5.537,-1.478 0.584,-0.129 1.51,-0.026 1.82,0.351 0.264,0.317 0.057,1.307 -0.262,1.786 -3.293,4.938 -3.5,10.104 -1.484,15.562 0.517,1.399 0.517,1.399 0.517,1.399 0.196,1.848 0.864,3.071 1.484,2.72 0.62,-0.351 2.271,-2.818 2.271,-5.475 v -29.997 c 0,-2.657 -2.173,-4.83 -4.829,-4.83 z"
   id="path92" />
	</g>
</g>
<path
   fill="#69b42d"
   d="m 119.659,66.746904 c 2.656,0 4.83,-2.175 4.83,-4.83 v -11.637 c 0,-2.656 -1.924,-5.7 -4.275,-6.763 -2.351,-1.063 -8.587,-1.613 -8.587,1.043 v 17.356 c 0,2.655 2.173,4.83 4.83,4.83 h 3.202 z"
   id="path98" />
<g
   id="g108"
   transform="translate(-67.554,-51.585096)">
	<g
   id="g102">
		<path
   fill="#0b8036"
   d="m 187.213,157.85 c 2.656,0 4.83,-2.174 4.83,-4.83 v -23.792 c 0,-2.655 -2.174,-4.83 -4.83,-4.83 h -3.202 c -2.657,0 -4.83,2.175 -4.83,4.83 v 23.792 c 0,2.656 2.173,4.83 4.83,4.83 z"
   id="path100" />
	</g>
	<g
   id="g106">
		<path
   fill="#69b42d"
   d="m 184.011,163.915 c -2.657,0 -4.83,2.173 -4.83,4.83 v 40.469 c 0,2.657 2.173,4.83 4.83,4.83 h 3.202 c 2.656,0 4.83,-2.173 4.83,-4.83 v -40.469 c 0,-2.657 -2.174,-4.83 -4.83,-4.83 z"
   id="path104" />
	</g>
</g>
<g
   id="g118"
   transform="translate(-67.554,-51.585096)">
	<g
   id="g112">
		<path
   fill="#0b8036"
   d="m 205.752,211.012 c 2.656,0 4.83,-2.174 4.83,-4.83 v -24.911 c 0,-2.657 -2.174,-4.83 -4.83,-4.83 h -3.199 c -2.657,0 -4.83,2.173 -4.83,4.83 v 24.911 c 0,2.656 2.173,4.83 4.83,4.83 z"
   id="path110" />
	</g>
	<g
   id="g116">
		<path
   fill="#a2ce90"
   d="m 202.553,217.077 c -2.657,0 -4.83,2.173 -4.83,4.83 v 26.999 c 0,2.656 1.161,4.948 2.58,5.093 0,0 0,0 1.389,0.309 2.217,0.487 4.53,0.532 6.754,0.993 0.725,0.15 0.725,0.15 0.725,0.15 0.777,0.372 1.412,-1.495 1.412,-4.152 v -29.392 c 0,-2.657 -2.174,-4.83 -4.83,-4.83 z"
   id="path114" />
	</g>
</g>
<g
   id="g128"
   transform="translate(-67.554,-51.585096)">
	<g
   id="g122">
		<path
   fill="#a2ce90"
   d="m 224.293,236.829 c 2.656,0 4.83,-2.174 4.83,-4.83 v -22.754 c 0,-2.656 -2.174,-4.83 -4.83,-4.83 h -3.201 c -2.657,0 -4.83,2.174 -4.83,4.83 v 22.754 c 0,2.656 2.173,4.83 4.83,4.83 z"
   id="path120" />
	</g>
	<g
   id="g126">
		<path
   fill="#69b42d"
   d="m 221.092,242.895 c -2.657,0 -4.83,2.173 -4.83,4.83 v 9.657 c 0,2.657 0.314,5.331 0.698,5.943 0.384,0.612 2.704,2.035 4.327,1.887 0,0 0,0 1.674,-0.035 1.815,-0.04 3.633,0.016 5.443,0.119 0.224,0.013 0.224,0.013 0.224,0.013 0.272,0.02 0.495,-2.137 0.495,-4.794 v -12.79 c 0,-2.657 -2.174,-4.83 -4.83,-4.83 z"
   id="path124" />
	</g>
</g>
<g
   id="g138"
   transform="translate(-67.554,-51.585096)">
	<g
   id="g132">
		<path
   fill="#69b42d"
   d="m 242.832,218.006 c 2.656,0 4.83,-2.173 4.83,-4.83 v -37.089 c 0,-2.657 -2.174,-4.83 -4.83,-4.83 h -3.199 c -2.657,0 -4.83,2.173 -4.83,4.83 v 37.089 c 0,2.657 2.173,4.83 4.83,4.83 z"
   id="path130" />
	</g>
	<g
   id="g136">
		<path
   fill="#0b8036"
   d="m 239.633,224.071 c -2.657,0 -4.83,2.174 -4.83,4.83 v 35.979 c 0,2.657 0.737,5.56 1.639,6.451 0.902,0.892 3.994,3.415 6.115,2.371 0,0 0,0 2.035,0.296 1.037,0.15 1.037,0.15 1.037,0.15 1.119,0.09 2.033,-2.009 2.033,-4.666 v -40.581 c 0,-2.656 -2.174,-4.83 -4.83,-4.83 z"
   id="path134" />
	</g>
</g>
<g
   id="g148"
   transform="translate(-67.554,-51.585096)">
	<g
   id="g142">
		<path
   fill="#0b8036"
   d="m 261.373,253.096 c 2.656,0 4.83,-2.173 4.83,-4.83 V 224.94 c 0,-2.657 -2.174,-4.83 -4.83,-4.83 h -3.201 c -2.657,0 -4.83,2.173 -4.83,4.83 v 23.325 c 0,2.657 2.173,4.83 4.83,4.83 h 3.201 z"
   id="path140" />
	</g>
	<g
   id="g146">
		<path
   fill="#a2ce90"
   d="m 258.172,259.161 c -2.657,0 -4.83,2.174 -4.83,4.83 v 4.062 c 0,2.657 0.085,4.781 0.19,4.723 0,0 0,0 0.095,-0.067 0.589,-0.424 2.018,-0.04 2.885,0.353 2.276,1.029 4.469,2.245 6.672,3.433 1,0.539 1,0.539 1,0.539 1.111,0.628 2.02,-1.032 2.02,-3.688 v -9.354 c 0,-2.656 -2.174,-4.83 -4.83,-4.83 h -3.202 z"
   id="path144" />
	</g>
</g>
<g
   id="g158"
   transform="translate(-67.554,-51.585096)">
	<g
   id="g152">
		<path
   fill="#69b42d"
   d="m 279.912,242.098 c 2.656,0 4.83,-2.173 4.83,-4.83 v -28.022 c 0,-2.656 -2.174,-4.83 -4.83,-4.83 h -3.199 c -2.657,0 -4.83,2.174 -4.83,4.83 v 28.022 c 0,2.657 2.173,4.83 4.83,4.83 z"
   id="path150" />
	</g>
	<g
   id="g156">
		<path
   fill="#a2ce90"
   d="m 276.713,248.164 c -2.657,0 -4.83,2.173 -4.83,4.83 v 18.843 c 0,2.656 1.208,4.685 2.685,4.508 0,0 0,0 1.502,0.183 3.44,0.415 6.54,0.215 8.635,-3.208 0.009,-0.016 0.009,-0.016 0.009,-0.016 0.016,-0.017 0.029,-2.203 0.029,-4.86 v -15.449 c 0,-2.657 -2.174,-4.83 -4.83,-4.83 h -3.2 z"
   id="path154" />
	</g>
</g>
<path
   fill="#a2ce90"
   d="m 230.899,115.3629 c 2.656,0 4.83,-2.174 4.83,-4.83 v -8.443 c 0,-2.654996 -0.294,-4.871996 -0.652,-4.922996 0,0 0,0 -0.366,-0.07 -4.021,-0.77 -7.192,-1.661 -7.192,-1.661 -2.559,-0.72 -4.65,0.866 -4.65,3.522 V 110.5329 c 0,2.656 2.173,4.83 4.83,4.83 z"
   id="path160" />
<g
   id="g170"
   transform="translate(-67.554,-51.585096)">
	<g
   id="g164">
		<path
   fill="#a2ce90"
   d="m 295.037,224.071 c 2.539,0 4.197,-2.132 3.685,-4.739 0,0 -0.066,-0.337 -0.444,-2.893 -0.452,-3.077 0.101,-6.388 0.678,-9.503 0.406,-2.188 0.406,-2.188 0.406,-2.188 2.157,-0.948 3.922,-3.897 3.922,-6.555 v -20.351 c 0,-2.657 -2.174,-4.83 -4.83,-4.83 h -3.201 c -2.657,0 -4.83,2.173 -4.83,4.83 v 41.397 c -10e-4,2.659 2.075,4.832 4.614,4.832 z"
   id="path162" />
	</g>
	<g
   id="g168">
		<path
   fill="#0b8036"
   d="m 301.834,234.335 c -0.498,-2.309 -3.08,-4.197 -5.736,-4.197 h -0.846 c -2.657,0 -4.83,2.173 -4.83,4.83 v 33.014 c 0,2.657 0.671,4.95 1.492,5.097 0.82,0.146 4.012,-1.3 5.542,-3.471 0,0 0.374,-0.53 2.323,-2.086 1.447,-1.153 1.447,-1.153 1.447,-1.153 1.131,-1.437 2.057,-4.786 2.057,-7.442 v -12.739 c 0,-2.656 -0.312,-6.305 -0.694,-8.107 0,0 0,0 -0.331,-1.641 -0.424,-2.105 -0.424,-2.105 -0.424,-2.105 z"
   id="path166" />
	</g>
</g>
<path
   fill="#a2ce90"
   d="m 249.438,82.359904 c 2.656,0 4.83,-2.173 4.83,-4.83 v -0.269 c 0,-2.656 -2.061,-5.522 -4.577,-6.37 0,0 -2.95,-0.994 -6.517,-3.234 -0.559,-0.351 -0.559,-0.351 -0.559,-0.351 -0.664,-0.308 -1.207,1.614 -1.207,4.271 v 5.953 c 0,2.657 2.174,4.83 4.83,4.83 z"
   id="path172" />
<path
   fill="#69b42d"
   d="m 249.438,127.4729 c 2.656,0 4.83,-2.174 4.83,-4.83 V 93.255904 c 0,-2.656 -2.174,-4.829 -4.83,-4.829 h -3.199 c -2.656,0 -4.83,2.173 -4.83,4.829 V 122.6429 c 0,2.656 2.174,4.83 4.83,4.83 z"
   id="path174" />
<path
   fill="#0b8036"
   d="m 241.409,241.1059 c 0,0.15 2.174,0.273 4.83,0.273 h 3.199 c 2.656,0 4.83,-2.173 4.83,-4.83 v -98.182 c 0,-2.657 -2.174,-4.83 -4.83,-4.83 h -3.199 c -2.656,0 -4.83,2.173 -4.83,4.83 v 35.613 c 0,2.657 0.559,6.932 1.239,9.498 0,0 1.269,4.778 3.107,9.367 2.777,6.929 4.679,14.075 4.829,21.602 0.2,9.941 -6.783,22.188 -6.783,22.188 -1.315,2.309 -2.392,4.32 -2.392,4.471 z"
   id="path176" />
<g
   id="g186"
   transform="translate(-67.554,-51.585096)">
	<g
   id="g180">
		<path
   fill="#a2ce90"
   d="m 316.992,335.857 c 2.656,0 4.83,-2.174 4.83,-4.83 V 303.86 c 0,-2.656 -2.174,-4.83 -4.83,-4.83 h -3.199 c -2.656,0 -4.83,2.174 -4.83,4.83 v 27.167 c 0,2.656 2.174,4.83 4.83,4.83 z"
   id="path178" />
	</g>
	<g
   id="g184">
		<path
   fill="#0b8036"
   d="m 313.793,341.923 c -2.656,0 -4.83,2.173 -4.83,4.83 v 3.428 c 0,2.656 0.592,4.885 1.313,4.949 0,0 0,0 0.657,-0.01 4.018,-0.06 7.259,0.373 9.309,4.579 0.326,0.667 0.326,0.667 0.326,0.667 0.69,0.563 1.254,-1.148 1.254,-3.805 v -9.809 c 0,-2.657 -2.174,-4.83 -4.83,-4.83 h -3.199 z"
   id="path182" />
	</g>
</g>
<g
   id="g196"
   transform="translate(-67.554,-51.585096)">
	<g
   id="g190">
		<path
   fill="#a2ce90"
   d="m 298.453,324.374 c 2.656,0 4.83,-2.173 4.83,-4.83 V 303.86 c 0,-2.656 -1.48,-3.237 -3.289,-1.293 0,0 -3.678,3.955 -6.952,7.872 -0.892,1.067 -0.892,1.067 -0.892,1.067 -0.951,1.205 -1.729,4.363 -1.729,7.021 v 1.017 c 0,2.657 2.173,4.83 4.83,4.83 z"
   id="path188" />
	</g>
	<g
   id="g194">
		<path
   fill="#69b42d"
   d="m 295.252,330.44 c -2.657,0 -4.83,2.173 -4.83,4.83 v 2.418 c 0,2.657 0.502,4.997 1.115,5.201 0,0 0,0 0.56,0.192 0.622,0.213 1.223,0.63 1.697,1.096 2.011,1.971 4.127,3.86 5.896,6.033 1.305,1.604 1.305,1.604 1.305,1.604 1.072,2.184 2,3.93 2.062,3.881 0.062,-0.049 0.228,-2.342 0.228,-4.999 V 335.27 c 0,-2.657 -2.174,-4.83 -4.83,-4.83 z"
   id="path192" />
	</g>
</g>
<path
   fill="#69b42d"
   d="m 267.979,96.031904 c 2.657,0 4.83,-2.174 4.83,-4.83 v -12.657 c 0,-2.657 -1.947,-4.752 -4.33,-4.654 -2.381,0.096 -8.531,1.811 -8.531,4.467 v 12.845 c 0,2.656 2.174,4.83 4.83,4.83 h 3.201 z"
   id="path198" />
<path
   fill="#a2ce90"
   d="m 267.979,149.7979 c 2.657,0 4.83,-2.174 4.83,-4.83 v -38.04 c 0,-2.657 -2.173,-4.83 -4.83,-4.83 h -3.201 c -2.656,0 -4.83,2.173 -4.83,4.83 v 38.04 c 0,2.656 2.174,4.83 4.83,4.83 z"
   id="path200" />
<path
   fill="#69b42d"
   d="m 267.979,202.4299 c 2.657,0 4.83,-2.174 4.83,-4.83 v -36.906 c 0,-2.657 -2.173,-4.83 -4.83,-4.83 h -3.201 c -2.656,0 -4.83,2.173 -4.83,4.83 v 36.906 c 0,2.656 2.174,4.83 4.83,4.83 z"
   id="path202" />
<path
   fill="#a2ce90"
   d="m 267.979,228.5569 c 2.657,0 4.83,-2.174 4.83,-4.83 v -10.402 c 0,-2.657 -2.173,-4.83 -4.83,-4.83 h -3.201 c -2.656,0 -4.83,2.173 -4.83,4.83 v 10.401 c 0,2.656 2.174,4.83 4.83,4.83 h 3.201 z"
   id="path204" />
<g
   id="g214"
   transform="translate(-67.554,-51.585096)">
	<g
   id="g208">
		<path
   fill="#69b42d"
   d="m 335.533,349.718 c 2.657,0 4.83,-2.173 4.83,-4.83 v -53.851 c 0,-2.657 -2.173,-4.83 -4.83,-4.83 h -3.201 c -2.656,0 -4.83,2.173 -4.83,4.83 v 53.851 c 0,2.657 2.174,4.83 4.83,4.83 z"
   id="path206" />
	</g>
	<g
   id="g212">
		<path
   fill="#0b8036"
   d="m 332.332,355.784 c -2.656,0 -4.83,2.173 -4.83,4.83 v 2.591 c 0,2.657 2.174,4.814 4.83,4.797 0,0 0.25,-0.002 2.627,0.699 1.928,0.567 1.928,0.567 1.928,0.567 1.912,-0.429 3.477,-2.954 3.477,-5.611 v -3.043 c 0,-2.657 -2.173,-4.83 -4.83,-4.83 z"
   id="path210" />
	</g>
</g>
<path
   fill="#0b8036"
   d="m 286.448,104.3979 c 2.656,0 4.83,-2.173 4.83,-4.829996 v -21.896 c 0,-2.656 -1.918,-4.793 -4.263,-4.746 -2.344,0.047 -8.526,2.533 -8.526,5.19 v 21.452 c 0,2.656996 2.174,4.829996 4.83,4.829996 z"
   id="path216" />
<path
   fill="#69b42d"
   d="m 286.448,133.5379 c 2.656,0 4.83,-2.173 4.83,-4.83 v -13.414 c 0,-2.656 -2.174,-4.83 -4.83,-4.83 h -3.129 c -2.656,0 -4.83,2.174 -4.83,4.83 v 13.414 c 0,2.657 2.174,4.83 4.83,4.83 z"
   id="path218" />
<g
   id="g228"
   transform="translate(-67.554,-51.585096)">
	<g
   id="g222">
		<path
   fill="#a2ce90"
   d="m 354.002,245.131 c 2.656,0 4.83,-2.173 4.83,-4.83 v -44.282 c 0,-2.656 -2.174,-4.83 -4.83,-4.83 h -3.129 c -2.656,0 -4.83,2.174 -4.83,4.83 v 44.282 c 0,2.657 2.174,4.83 4.83,4.83 z"
   id="path220" />
	</g>
	<g
   id="g226">
		<path
   fill="#0b8036"
   d="m 350.873,251.196 c -2.656,0 -4.83,2.174 -4.83,4.83 v 40.693 c 0,2.657 2.174,4.83 4.83,4.83 h 3.129 c 2.656,0 4.83,-2.173 4.83,-4.83 v -40.693 c 0,-2.656 -2.174,-4.83 -4.83,-4.83 z"
   id="path224" />
	</g>
</g>
<g
   id="g238"
   transform="translate(-67.554,-51.585096)">
	<g
   id="g232">
		<path
   fill="#69b42d"
   d="m 86.096,111.594 c 0,2.038 2.173,3.705 4.83,3.705 h 3.199 c 2.658,0 4.83,-2.174 4.83,-4.83 V 64.014 c 0,-2.655 -1.65,-5.8 -3.667,-6.983 0,0 0,0 -1.761,-1.221 -2.684,-1.863 -3.937,-3.058 -3.937,-3.058 -1.923,-1.833 -3.495,-1.466 -3.495,0.816 0,2.28 0.936,6.109 2.08,8.506 0,0 3.898,8.163 7.896,13.958 0.867,1.256 1.64,2.578 2.416,3.894 0.136,0.23 0.136,0.23 0.136,0.23 0.003,0.52 -0.87,0.877 -1.941,0.792 0,0 0,0 -0.79,-0.323 -3.259,-1.34 -5.32,-2.175 -5.32,-2.175 -2.463,-0.996 -4.477,0.364 -4.477,3.02 v 18.411 c 0,2.656 0.224,5.076 0.499,5.376 0,0 0,0 0.241,0.281 0.662,0.77 0.662,0.77 0.662,0.77 0.449,1.108 0.482,1.951 0.074,1.876 -0.407,-0.078 -1.475,1.372 -1.475,3.41 z"
   id="path230" />
	</g>
	<g
   id="g236">
		<path
   fill="#0b8036"
   d="m 90.926,121.364 c -2.657,0 -4.83,2.175 -4.83,4.83 v 1.06 c 0,2.657 1.456,6.444 3.235,8.417 0,0 1.466,1.624 4.044,4.076 1.793,1.705 1.857,1.76 1.857,1.76 2.049,1.691 3.723,0.904 3.723,-1.753 v -13.56 c 0,-2.655 -2.172,-4.83 -4.83,-4.83 z"
   id="path234" />
	</g>
</g>
<g
   id="g240"
   transform="translate(-67.554,-51.585096)">
</g>
<g
   id="g242"
   transform="translate(-67.554,-51.585096)">
</g>
<g
   id="g244"
   transform="translate(-67.554,-51.585096)">
</g>
<g
   id="g246"
   transform="translate(-67.554,-51.585096)">
</g>
<g
   id="g248"
   transform="translate(-67.554,-51.585096)">
</g>
<g
   id="g250"
   transform="translate(-67.554,-51.585096)">
</g>
</svg>
